# xmcd CD database file
#
# Track frame offsets:
#	150
#	24455
#	49297
#	70887
#	90990
#	115245
#	139460
#	163772
#	188617
#	221405
#
# Disc length: 4440 seconds
#
# Revision: 0
# Processed by: cddbd v1.5PL3 Copyright (c) Steve Scherf et al.
# Submitted via: CDex 1.51
#
DISCID=8a11560a
DTITLE=move - Blast My Desire
DYEAR=2004
DGENRE=Anime
TTITLE0=Blast My Desire
TTITLE1=DEEP CALM
TTITLE2=WORLD'S END 〜Rebirth〜
TTITLE3=WORLD'S END 〜Rebirth〜 D. I's Grunge HipHop Mix
TTITLE4=WORLD'S END 〜Rebirth〜 Burn up the soul Mix
TTITLE5=WORLD'S END 〜Rebirth〜 HEAD BANGER'S Mix
TTITLE6=Blast My Desire (Instrumental)
TTITLE7=DEEP CALM (Instrumental)
TTITLE8=WORLD'S END 〜Rebirth〜 (Instrumental)
TTITLE9=data
EXTD=YEAR: 2004
EXTT0=
EXTT1=
EXTT2=
EXTT3=
EXTT4=
EXTT5=
EXTT6=
EXTT7=
EXTT8=
EXTT9=
PLAYORDER=
